<?xml version="1.0" encoding="UTF-8" standalone="no"?>
<svg
   xmlns:dc="http://purl.org/dc/elements/1.1/"
   xmlns:cc="http://creativecommons.org/ns#"
   xmlns:rdf="http://www.w3.org/1999/02/22-rdf-syntax-ns#"
   xmlns:svg="http://www.w3.org/2000/svg"
   xmlns="http://www.w3.org/2000/svg"
   xmlns:sodipodi="http://sodipodi.sourceforge.net/DTD/sodipodi-0.dtd"
   xmlns:inkscape="http://www.inkscape.org/namespaces/inkscape"
   width="191.69061mm"
   height="73.924568mm"
   viewBox="0 0 191.69061 73.924568"
   version="1.1"
   id="svg8"
   inkscape:version="1.0.2 (e86c870879, 2021-01-15, custom)"
   sodipodi:docname="nyc.svg">
  <defs
     id="defs2" />
  <sodipodi:namedview
     id="base"
     pagecolor="#000000"
     bordercolor="#666666"
     borderopacity="1.0" />
  <metadata
     id="metadata5">
    <rdf:RDF>
      <cc:Work
         rdf:about="">
        <dc:format>image/svg+xml</dc:format>
        <dc:type
           rdf:resource="http://purl.org/dc/dcmitype/StillImage" />
        <dc:title></dc:title>
      </cc:Work>
    </rdf:RDF>
  </metadata>
  <g
     inkscape:label="Layer 1"
     inkscape:groupmode="layer"
     id="layer1"
     transform="translate(-6.9642124,-104.40081)">
    <path
       class="st0"
       d="m 65.754631,172.05477 c -0.10583,-0.15875 -0.15875,-0.34396 0,-0.635 0,0 0,-0.0265 0,-0.0265 z m -58.2612516,5.08 c 0.132292,0.0529 0.105833,0.66146 0.105833,1.13771 h 0.343959 c 0.02646,-0.89959 0.05292,-1.77271 -0.05292,-2.64584 -0.132292,-1.29645 -0.132292,-2.54 0.02646,-3.81 0.02646,-0.13229 -0.07937,-0.26458 -0.105833,-0.39687 0.05292,-0.0265 0.07938,-0.0794 0.132292,-0.10583 0.873125,0.3175 1.5875,-0.52917 2.4606246,-0.4498 0.370416,0.0265 0.132291,-0.42333 0.291041,-0.55562 0.343959,-0.3175 0.978955,0.18521 1.296455,0.50271 1.32292,1.24354 0.3175,2.91041 0.68792,4.31271 0.0529,0.21166 -0.0265,0.42333 0.21167,0.5027 0.10583,0.0265 0.29104,0.0265 0.34396,-0.0529 0.29104,-0.39688 -0.18521,-0.3175 -0.23813,-0.47625 -0.15875,-0.39688 -0.0794,-0.79375 -0.0265,-1.21709 0.52917,0.15875 0.3175,0.58209 0.39688,0.84667 0.10583,0.39688 -0.0529,1.00542 0.635,0.92604 0.37041,-0.0265 0.26458,0.3175 0.26458,0.55563 0.0265,0.66146 -0.0265,1.29646 0.0265,1.95791 0,0.0529 0,0.0794 0,0.1323 h 3.99521 c -0.0265,-0.26459 -0.1323,-0.55563 0.13229,-0.635 0.37041,-0.1323 0.84666,-0.1323 1.21708,0.0264 0.29104,0.10584 0.3175,0.37042 -0.10583,0.21167 -0.0529,-0.0265 -0.10584,0.18521 -0.0529,0.34396 0,0.0265 0.0265,0.0529 0.0265,0.0794 h 2.14312 c 0.0529,-0.13229 0.0794,-0.29104 0.0794,-0.44979 -0.13229,-3.96875 0.34396,-7.91104 0.15875,-11.85333 -0.0529,-0.92604 0.1323,-1.34938 1.00542,-1.16417 0.21167,0.0529 0.42333,0 0.66146,0 -0.18521,-0.58208 -0.21167,-1.11125 -0.0529,-1.61396 v 0 0 c 0,0 0,0 0,0 0.13229,0.0794 0.26458,0.10584 0.39687,0.10584 l -0.23811,-28.73374 20.39938,33.46979 c 1.03187,-0.0265 2.06375,-0.0265 3.09562,0.0794 0.44979,0.0529 0.79375,0.15875 1.03188,0.50271 0.5027,0.74084 1.1377,1.42875 0.9525,2.54 -0.0794,0.52917 0.0265,1.08479 -0.0265,1.61396 -0.10584,0.82021 0.0265,1.45521 0.87312,1.50813 0.55563,0.0264 0.55563,0.39687 0.42333,0.79375 -0.13229,0.34395 -0.23812,0.635 -0.0265,0.97895 0.39688,-0.0264 0.26459,-0.37041 0.26459,-0.58208 0,-1.56104 -0.18521,-3.14854 0.0794,-4.63021 0.15875,-0.82021 0.3175,-1.905 0.89958,-2.56646 0.39688,-0.44979 1.00542,-0.74083 1.56104,-0.23812 0.34396,0.29104 0.76729,-0.34396 1.16417,0.39687 0.23812,0.4498 0.76729,0.74084 0.68792,1.4023 -0.0529,0.47625 0.10583,0.635 0.52916,0.60854 0.52917,-0.0265 1.03188,-0.0794 1.56104,-0.0529 0.71438,0.0265 0.87313,0.29104 0.79375,1.00542 -0.0265,0.21166 -0.0794,0.50271 0.1323,0.58208 1.05833,0.47625 0.55562,1.50813 0.635,2.30188 0.0794,0.74083 0.37041,1.4552 0.15875,2.38125 0.58208,-0.34396 0.34395,-0.74084 0.42333,-1.00542 0.52917,-1.79917 0.52917,-3.65125 0.60854,-5.52979 0.0794,-1.93146 1.37583,-2.64584 2.69875,-1.74625 0.0529,0.0265 0.15875,0.0794 0.15875,0.0794 -0.34396,1.16417 1.00542,1.48167 0.9525,2.54 -0.0794,1.37584 -0.0265,2.75167 0.13229,4.18042 0.0265,-1.42875 1.21709,-2.40771 1.00542,-3.91583 -0.0529,-0.3175 0.26458,-0.68792 0.39687,-1.05834 0.0265,0.3175 0.37042,0.52917 0.47625,0.76729 v -65.24633 h -17.03915 l 0.37041,44.18542 -26.72291,-44.18542 H 6.9642124 v 71.12 c 0.185209,0.0794 0.343959,0.18521 0.529167,0.23813 z m 17.7006216,-5.08 c -0.0529,-0.0529 -0.13229,-0.18521 -0.13229,-0.15875 -0.15875,0.0794 -0.0265,0.18521 0.0265,0.26458 0.0265,-0.0529 0.0794,-0.0794 0.10583,-0.10583 z m 66.93958,-45.95813 c 0.0265,1.11125 -0.10583,2.24896 0.10584,3.36021 0.13229,0.79375 0.74083,0.39688 1.11125,0.635 0.23812,0.15875 0.58208,0.0529 0.84666,0.37042 0.26459,0.3175 0.23813,0.71437 0.13229,1.00542 -0.15875,0.47625 -0.39687,-0.0794 -0.60854,-0.0529 -0.66146,0.0529 -1.27,-0.60854 -2.19604,-0.29104 1.16417,0.23812 2.03729,0.79375 3.06917,0.635 0.55562,-0.0794 0.9525,0.39687 0.9525,1.21708 0,7.09083 0,14.15521 0,21.24604 0,0.58209 0.0265,1.13771 0.18521,1.66688 0.0264,0.10583 0,0.29104 0.0264,0.3175 1.32292,0.50271 0.68792,1.74625 0.71438,2.61937 0.0794,3.65125 0.0265,7.3025 0.0265,10.95375 0,0.42334 -0.0529,0.87313 0.34396,1.16417 0.23812,0.18521 0.26458,0.47625 0.23812,0.76729 0,0.10583 0,0.21167 0,0.3175 0,0.97896 0.0265,1.95792 0,2.93688 -0.0265,0.76729 0.60854,1.53458 0.0265,2.30187 -0.0794,0.10583 0,0.34396 0.0265,0.58208 0.68791,-0.29104 0.635,-1.05833 0.68791,-1.50812 0.1323,-1.19063 0.0265,-2.46063 0.10584,-3.65125 0.15875,-2.27542 0.0794,-4.52438 0.13229,-6.77333 0,-0.50271 0.26458,-0.47625 0.55562,-0.47625 0.89959,0 1.799169,0.0529 2.672299,-0.0265 0.55562,-0.0265 0.60854,0.21166 0.60854,0.74083 -0.0265,1.79917 0,3.59833 0,5.3975 0,0.23813 -0.0529,0.60854 0.0529,0.74083 0.82021,0.92605 0.4498,2.11667 0.52917,3.12209 1.42875,0.58208 1.11125,-0.60854 1.13771,-1.42875 0,-0.52917 0,-1.08479 0,-1.61396 0,-0.50271 -0.15875,-1.05833 0.55563,-1.19063 0.34395,-0.0794 0.21166,-0.55562 0.21166,-0.87312 -0.0265,-2.19604 -0.18521,-4.39208 -0.0529,-6.53521 0.0794,-1.24354 -0.1323,-2.93687 1.21708,-3.94229 0.50271,-0.37042 0.66146,-1.40229 1.21708,-1.87854 v -6.0325 l 20.61104,-46.16979 h -19.10291 l -10.451039,29.10416 -5.68855,-16.03375 c -0.10583,2.43417 -0.0265,4.86834 0,7.27604 z m -3.70416,6.72042 c 0,-0.39687 -0.0529,-0.76729 0.47625,-0.79375 0.3175,-0.0265 0.44979,-0.50271 0.47625,-0.74083 0.15875,-1.24354 1.03187,-1.27 1.7727,-1.34938 0.50271,-0.0529 0.58209,-0.23812 0.52917,-0.71437 -0.0794,-0.74084 -0.21167,-1.64042 -0.10583,-2.19604 0.23812,-1.16417 0.0265,-2.30188 0.18521,-3.46605 0.1852,-1.32291 -0.0265,-2.69875 0.0529,-4.04812 0.0265,-0.50271 -0.10583,-1.00542 -0.0794,-1.5875 l -4.33913,-12.17083 h -19.28812 l 20.10833,44.6352 c 0.0265,-5.84729 0.34396,-11.69458 0.21167,-17.56833 z m -63.23542,39.23771 c -0.0529,-0.0529 -0.13229,-0.18521 -0.13229,-0.15875 -0.15875,0.0794 -0.0265,0.18521 0.0265,0.26458 0.0265,-0.0529 0.0794,-0.0794 0.10583,-0.10583 z m 138.086039,-8.65188 c -11.58875,0 -18.7325,-10.58333 -18.7325,-21.56354 0,-10.29229 6.69396,-21.16666 18.62667,-21.16666 9.60437,0 14.86958,7.24958 16.85396,12.64708 h 18.62666 c -1.87854,-11.37708 -13.54666,-28.91896 -35.37479,-28.91896 -22.78062,0 -36.5125,19.02354 -36.5125,37.54438 0,6.45583 1.61396,12.75291 4.57729,18.30916 0.0529,-0.0794 0.0794,-0.18521 0.10584,-0.26458 0.21166,0.0794 0.13229,0.26458 0.10583,0.39687 0,0.0794 -0.0265,0.15875 -0.0265,0.23813 0.21167,0.42333 0.44979,0.82021 0.68792,1.21708 0.15875,0.0265 0.37041,0.0265 0.58208,0 0.82021,-0.0794 1.32292,0.82021 1.66688,1.53459 0.44979,0.87312 0.635,1.79916 0.71437,2.75166 0.37042,0.47625 0.76729,0.9525 1.19063,1.40229 0.0265,-0.74083 0.0794,-1.50812 0.0529,-2.24895 -0.0265,-0.74084 0.47625,-0.84667 0.66146,-0.74084 0.44979,0.21167 1.21708,-0.47625 1.40229,0.66146 0.29104,1.56104 0.10584,3.12208 0.15875,4.70958 0.0794,0.0529 0.13229,0.1323 0.21167,0.18521 0,-0.0529 0,-0.10583 -0.0265,-0.15875 -0.0794,-0.60854 0.13229,-0.87312 0.68792,-0.76729 0.55562,0.10583 0.68791,-0.15875 0.68791,-0.76729 0,-0.9525 -0.10583,-1.87854 0.26459,-2.83104 0.23812,-0.60854 1.11125,-0.635 0.89958,-1.48167 0.23813,0.15875 0.58208,-0.10583 0.71438,0.37042 0.3175,1.24354 0.68791,2.46062 0.37041,3.75708 -0.0794,0.29104 0.15875,0.47625 0.0794,0.79375 -0.0794,0.26458 0.18521,0.21167 0.42333,0.18521 0.55563,-0.0794 -0.15875,-1.11125 0.50271,-0.84667 0.3175,0.13229 0.0529,0.92604 0.42333,1.16417 0.3175,0.18521 0.82021,0.0265 0.9525,0.79375 0.29104,-0.76729 -0.23812,-1.66688 0.74084,-2.01083 0.74083,-0.26459 1.27,-0.10584 1.29645,0.76729 0.0265,1.08479 0.97896,1.50812 1.24355,2.43416 0.0264,0.1323 0.29104,0.10584 0.42333,0 0.71437,-0.5027 0.89958,-0.39687 1.11125,0.74084 0.0529,-1.45521 0.97896,-1.48167 1.77271,-1.53459 1.37583,-0.0794 1.53458,-0.0529 1.32291,-1.5875 -0.1852,-1.42875 0.7673,-1.1377 1.29646,-1.42875 0.23813,-0.13229 0.55563,0.10584 0.13229,-0.39687 -0.26458,-0.3175 0.3175,-0.29104 0.52917,-0.44979 0.0529,-0.0529 0.10583,-0.13229 0.15875,-0.18521 0.0265,0.10583 0.0794,0.18521 0.0794,0.29104 0.13229,0.635 0.60854,0.76729 1.03187,0.87313 0.66146,0.1852 1.11125,1.19062 1.95792,0.60854 0,0 0.21166,0.18521 0.21166,0.3175 0,0.68791 0.34396,1.08479 0.74084,1.56104 0.37041,0.44979 0.76729,1.00542 0.60854,1.82562 -0.15875,0.82021 0.44979,1.32292 0.97896,1.56105 0.34396,0.15875 0.26458,0.5027 0.47625,0.635 0.0265,-0.0794 0.0529,-0.15875 0.0529,-0.21167 0.0529,-1.5875 0.18521,-1.79917 1.50813,-1.98438 0.42333,-0.0529 0.74083,-0.39687 1.19062,-0.44979 0.58209,-0.0794 1.05834,-0.15875 1.34938,0.58209 0.18521,0.47625 0.55562,0.10583 0.79375,0.15875 0.87312,0.15875 1.48167,-0.58209 1.50812,-1.5875 0.0265,-0.97896 -0.13229,-1.98438 0.18521,-2.96334 0.0794,-0.23812 -0.29104,-0.82021 0.34396,-0.58208 0.34396,0.13229 0.9525,-0.39688 0.97896,0.52917 0,0.3175 -0.26458,0.92604 0.39687,0.89958 0.60855,-0.0265 1.32292,0.47625 1.74625,-0.47625 0.0529,-0.13229 0.23813,-0.29104 0.37042,-0.29104 0.66146,-0.0265 1.45521,-0.29104 1.93146,0.0265 0.71437,0.5027 1.37583,0.44979 2.11667,0.55562 0.26458,0.0529 0.42333,0.39688 0.39687,0.76729 -0.0265,0.37042 -0.0529,0.71438 -0.0265,1.08479 0,0.21167 -0.15875,0.52917 0.23813,0.58209 0.0529,0 0.15875,0.0265 0.18521,0 0.1852,-0.29104 -0.18521,-0.34396 -0.21167,-0.55563 0,-0.10583 0.0265,-0.21166 0.0529,-0.39687 0.76729,0.9525 1.37583,0.44979 1.79916,-0.29104 0.23813,-0.39688 0.3175,-0.55563 0.635,-0.15875 0.34396,0.44979 0.34396,-0.47625 0.68792,-0.18521 0.60854,0.52916 1.03187,1.27 0.9525,2.06375 -0.10583,0.82021 0.15875,1.13771 0.74083,1.24354 0.44979,0.0794 0.50271,0.26458 0.44979,0.71437 -0.0794,0.58209 -0.10583,1.13771 -0.10583,1.7198 0.39688,-0.21167 0.76729,-0.4498 1.13771,-0.68792 0.0265,-0.635 0.0794,-1.27 0.13229,-1.905 0.10583,-1.00542 1.71979,-2.61938 2.56646,-2.75167 0.29104,-0.0529 0.55562,-0.13229 0.82021,-0.18521 1.05833,-0.23812 1.48166,-0.0529 1.56104,0.97896 5.37104,-4.89479 9.36625,-11.50937 11.19187,-19.31458 h -18.62666 c -1.11125,2.43417 -5.63563,12.14437 -16.72167,12.14437 z m -138.086039,8.65188 c -0.0529,-0.0529 -0.13229,-0.18521 -0.13229,-0.15875 -0.15875,0.0794 -0.0265,0.18521 0.0265,0.26458 0.0265,-0.0529 0.0794,-0.0794 0.10583,-0.10583 z"
       id="path12"
       style="stroke-width:0.264583" />
  </g>
  <style
     type="text/css"
     id="style10">
	.st0{fill:#000000;}
</style>
</svg>
