<?xml version="1.0" encoding="UTF-8" standalone="no"?>
<svg
   xmlns:dc="http://purl.org/dc/elements/1.1/"
   xmlns:cc="http://creativecommons.org/ns#"
   xmlns:rdf="http://www.w3.org/1999/02/22-rdf-syntax-ns#"
   xmlns:svg="http://www.w3.org/2000/svg"
   xmlns="http://www.w3.org/2000/svg"
   xmlns:sodipodi="http://sodipodi.sourceforge.net/DTD/sodipodi-0.dtd"
   xmlns:inkscape="http://www.inkscape.org/namespaces/inkscape"
   version="1.1"
   id="Layer_1"
   x="0px"
   y="0px"
   viewBox="0 0 2559.9983 614.69597"
   enable-background="new 0 0 2625.221 688.421"
   xml:space="preserve"
   sodipodi:docname="nycsvg.svg"
   width="2559.9983"
   height="614.69598"
   inkscape:version="1.0.2 (e86c870879, 2021-01-15, custom)"><metadata
   id="metadata26"><rdf:RDF><cc:Work
       rdf:about=""><dc:format>image/svg+xml</dc:format><dc:type
         rdf:resource="http://purl.org/dc/dcmitype/StillImage" /><dc:title></dc:title></cc:Work></rdf:RDF></metadata><defs
   id="defs24" /><sodipodi:namedview
   pagecolor="#ffffff"
   bordercolor="#666666"
   borderopacity="1"
   objecttolerance="10"
   gridtolerance="10"
   guidetolerance="10"
   inkscape:pageopacity="0"
   inkscape:pageshadow="2"
   inkscape:window-width="713"
   inkscape:window-height="480"
   id="namedview22"
   showgrid="false"
   inkscape:zoom="0.40187093"
   inkscape:cx="1279.9999"
   inkscape:cy="307.3485"
   inkscape:window-x="2725"
   inkscape:window-y="459"
   inkscape:window-maximized="0" />
<path
   d="M 0.37839056,454.12 H 30.452391 v 21.556 h 10.737 l 3.552,-106.163 h 7.912 v -2.099 l 2.018,-2.018 v -5.248 h 2.826 v -5.328 l 2.382,-2.382 h 14.814 v 3.189 h 4.521 v 1.776 h 4.521 v 3.391 h 5.005 v 6.136 h 8.477 l -2.18,117.304 h 15.338999 v 4.198 h 7.427 l 2.422,-95.103 h 1.372 v -1.938 h 2.422 V 388 h 5.086 v -6.62 h 3.714 v -4.198 l 4.682,-1.05 v -2.341 h 13.402 v 3.068 h 7.831 v 4.037 h 2.826 v -9.607 h 2.503 v -16.792 h -3.229 V 316.23 l 15.904,-2.422 h 2.18 v -2.422 h 4.117 v 2.987 h 3.229 v -2.987 h 3.794 v 1.049 h 3.229 v 2.422 h 17.68 v 11.545 h -3.875 v 25.673 h 3.068 v 19.779 h -4.198 v 44.806 h 2.018 v 38.752 h -3.633 v 56.997 h 2.261 v 5.248 h 7.104 v -3.068 h 2.745 v -17.277 h 19.699 v -5.813 h 14.855 l 1.615,-67.089 1.372,-0.565 0.242,-28.337 20.425,-2.826 66.281,1.695 -0.161,53.364 h 4.763 v 5.086 h 7.75 v -9.688 h 2.341 v -3.149 h 2.745 v 3.149 h 5.248 v -9.607 l 1.211,-1.938 h 6.216 17.277 v 5.005 h 4.521 v 16.389 h 8.961 c 0,0 -0.081,6.136 0,6.136 0.081,0 7.024,0 7.024,0 v 5.409 h 3.471 l 1.211,-84.204 h 2.099 v -11.948 h 2.906 v -11.948 h 9.203 v -10.575 h 3.552 v 1.453 h 1.534 l 0.161,-1.938 h 1.292 v 1.453 h 1.211 v -1.776 h 2.099 v 1.857 h 0.969 v -2.503 h 14.855 v 2.826 h 2.422 v -2.664 h 2.18 v 2.583 h 3.391 v -2.341 h 1.776 v 2.341 h 5.086 v -2.261 h 0.807 v 2.422 h 4.602 v -2.018 h 1.453 v 2.18 h 9.769 v -2.018 h 2.018 v 2.422 h 4.037 v -2.261 h 2.099 v 2.341 h 14.532 v 4.279 h 7.185 l 1.857,-81.297 -4.844,-2.583 4.844,-1.695 v -10.737 h -1.211 v -19.779 h 6.862 v -2.987 h 9.123 v -15.258 h -0.804 v -3.471 h 1.13 c 0,0 -0.727,-81.136 -1.049,-81.298 -0.322,-0.162 -1.938,0 -1.938,0 v -1.453 h 3.794 v 1.372 h -1.049 l 2.26,2.261 v 76.454 h 0.969 l 6.136,-12.11 0.888,0.323 -4.279,13.563 h 37.541 v 1.615 h 7.024 v 3.31 h -1.372 v 12.433 35.684 h 5.571 l -1.857,3.471 h -2.341 l -1.13,2.099 v 62.406 h 1.453 v 20.345 h 14.774 l 17.761,1.695 v 8.396 h 5.167 l -1.13,42.465 2.503,0.323 0.321,-26.644 19.295,-10.899 3.149,23.493 13.805,0.242 -0.161,3.229 -12.433,3.794 1.372,14.29 5.49,0.404 3.956,34.553 1.695,-17.035 14.209,6.701 0.323,-12.029 h 4.844 v -7.589 h 7.589 v -2.745 h 6.378 v -6.297 h 22.847 v 8.154 h 8.396 v 8.8 h 7.347 v 73.144 h 24.866 v -39.236 h 8.477 v -1.695 h 4.198 v 8.235 h 11.625 v 6.136 h 3.794 v -62.891 h 21.152 v -52.072 h 2.826 v -51.104 h 2.26 l 1.938,-33.181 1.049,-0.081 -0.242,-3.633 h 1.211 l 4.037,-40.608 20.99,-3.391 60.711,2.341 4.198,43.918 2.503,0.081 -0.242,32.858 2.341,-0.081 -0.969,51.992 2.583,0.081 -0.727,87.191 6.459,2.422 0.404,6.782 4.925,-4.117 v -36.33 h 13.805 l -0.161,65.474 h 4.36 v -25.915 h 4.602 v 3.149 h 7.992 l 1.049,-36.087 1.292,36.007 h 6.216 v 2.583 h 1.857 l 0.161,-5.49 h 2.987 v 30.275 h 6.862 v -7.912 l 4.198,8.558 h 1.776 v 12.271 h 1.938 v 1.453 h 1.695 v -3.714 c 0,0 1.695,0.404 1.695,0 0,-0.404 0,-4.117 0,-4.117 h 4.198 v -22.363 l 5.49,2.422 v -29.952 h 7.83101 l 1.13,5.49 h 4.198 v 22.605 h 1.938 v -10.737 h 17.519 v -0.969 h 2.987 v -1.292 h 2.906 v 2.583 h 5.248 v -2.018 h 5.086 v 1.938 h 14.613 v -17.439 c 0,0 -2.704,-5.127 0,-7.831 h 6.782 l 1.13,-20.345 v 20.022 c 0,0 2.422,3.31 0.081,8.073 l 0.081,31.728 h 3.875 v -7.831 h 24.946 v -9.648 h 1.352 V 452 h 1.271 v 3.633 l 2.059,-41.355 1.029,41.476 h 4.057 v 9.87 h 9.446 v 13.381 h 5.934 v 10.596 h 4.844 v -4.117 h 4.662 l 1.877,-49.711 h 10.051 l -0.787,39.115 h 1.09 v -19.497 l 13.018,-12.17 h 2.785 v 2.18 h 2.059 l 2.422,-40.023 0.969,37.298 h 1.151 v -3.391 h 2.664 l 3.391,-4.178 -1.029,4.238 1.393,36.753 h 2.785 v -14.229 h 4.481 v -3.451 h 2.604 v -1.15 h 1.514 v -3.027 h 2.361 v 2.604 h 7.569 v -2.119 h 3.875 v 2.24 h 11.383 v 11.565 h 3.088 v 5.51 h 9.022 v 5.692 h 32.273 v 5.147 h 11.747 v 4.541 h 1.938 v -9.446 h 1.211 v -2.483 h 3.027 v -5.752 h 1.635 v -2.18 h 4.662 v 3.754 h 4.481 v 14.532 h 4.662 v -9.87 h 9.082 v 7.993 c 0,0 2.604,-0.303 2.604,0 0,0.303 0,6.721 0,6.721 h 1.756 v -12.292 h 0.969 v -4.057 h 1.211 v -5.51 c 0,0 2.846,0.061 2.846,0 0,-0.061 0,-3.693 0,-3.693 h 1.635 v 2.301 h 3.027 l 0.242,-75.081 h 14.713 v 93.428 h 1.151 v 11.081 h 10.657 v 7.326 h 1.574 v -8.295 l 11.928,-1.938 h 4.42 v -57.037 h 1.09 v -18.225 l 0.666,-0.666 v -7.145 h 2.543 v -4.541 h 2.543 v -1.998 h 1.029 v -1.514 h 0.969 v -1.453 h 1.271 l 1.12,-1.12 v -2.755 h 0.757 v -3.996 h 0.727 v -4.057 h 0.605 v -9.87 l 0.273,-0.272 v -2.089 h 0.999 v -4.904 h -0.727 v -5.994 h 0.908 l 0.787,-19.981 0.787,25.007 0.515,0.515 v 4.269 l 0.833,0.833 v 2.8 h 1.196 v 10.051 h 0.848 v 4.36 4.723 l 1.544,1.544 h 2.331 v 2.15 h 2.24 v 2.059 h 1.574 v 1.998 3.512 h 1.756 v 8.78 h 1.816 v 16.772 h 1.272 v 29.548 h 7.387 v 5.994 h 1.393 v 2.301 h 2.725 v -0.969 h 4.662 v -1.877 h 3.754 v -12.175 h 1.15 v 12.11 h 0.848 23.796 v -13.139 h 18.225 v -3.936 h 20.345 l 1.453,4.238 h 6.176 v 26.521 h 1.15 v 2.664 h 12.049 v 5.994 h 4.602 v -28.882 h 10.172 v 13.2 l 1.877,-1.877 2.089,2.089 v 4.814 h 1.604 v -3.996 h 7.448 v -2.059 h 2.967 v 2.059 h 10.112 v 5.994 h 1.574 v -4.904 h 4.238 v -3.027 h 1.938 v 6.176 h 2.119 v 4.36 h 2.422 v -3.391 h 6.176 l 1.241,-1.241 v -4.814 h 0.575 v -12.17 h 0.545 c 0,0 4.42,-19.073 4.481,-19.255 0.061,-0.182 1.029,-16.53 1.029,-16.53 l 1.514,16.348 5.268,19.376 v 11.868 h 1.816 v 29.124 h 1.332 v -5.571 h 1.15 v -8.235 h 4.178 v -6.66 h 8.477 v -9.385 h 20.587 v -4.723 h 2.361 v 4.723 h 1.998 v -5.026 h 1.332 v -10.959 h 1.15 v -4.904 h 1.695 v 4.965 h 1.09 v 3.693 h 7.448 v 33.06 h 1.453 v -10.778 h 23.614 v 12.958 h 5.51 v -2.24 h 7.326 v -3.572 h 2.24 v 4.541 h 0.908 l -1.271,-57.401 1.695,1.695 v 1.09 h 1.393 v -0.908 h 3.33 v -2.24 h 6.6 v 3.149 h 2.301 v 4.178 h 1.514 v 50.074 h 4.057 v 14.169 h 18.225 l 6.055,-10.838 h 2.483 l 6.358,13.139 0.061,-15.924 h 2.967 v -5.873 h 6.903 v -33.12 h 15.622 v 44.14 h 4.481 v -4.481 h 4.662 v -39.054 h 9.264 v -2.785 h 15.501 v 2.785 h -2.301 v 7.145 h 2.725 V 495.6 h -2.119 v 28.519 h 6.903 l -1.09,-81.923 h 3.33 v -5.268 h 2.422 v -7.205 h 2.18 v -1.272 h 0.969 v -1.938 h -1.151 v -1.15 l 5.268,-4.238 39.841,0.666 7.932,3.996 v 3.936 h 2.422 v 8.598 h 7.811 v 17.741 h 3.936 v 41.961 h 1.332 v 7.266 h 6.358 v -6.963 h 3.815 v -0.848 h 1.665 v -1.332 h -1.453 v -0.938 h 1.453 v -1.362 h -1.514 v -1.09 h 1.484 v -1.362 h -1.544 v -1.029 h 1.635 v -1.362 h -1.817 v -1.06 h 1.786 v -1.453 h -1.817 v -1.09 h 1.695 v -1.574 h -1.786 v -0.787 h 1.756 v -1.938 h -1.877 v -1.211 h 9.536 v -6.479 h 17.923 v 6.358 h 17.135 v 16.015 h 4.814 v 9.113 h 6.176 v 18.831 h 3.693 v -9.96 h -1.635 v -20.345 h 2.452 v -6.691 h 2.967 v 6.57 h 4.39 v -0.696 h -1.484 v -1.362 h 1.453 v -0.969 h -1.574 v -1.483 h 1.484 v -1.241 h -1.423 v -0.878 h 1.574 v -1.483 h -1.574 v -1.181 h 1.393 v -1.332 h -1.514 v -0.938 h 1.514 v -2.18 h -1.272 v -1.181 h 13.714 v -3.724 h 3.149 v -0.696 h 0.938 v -1.09 h -2.483 v 0.727 h -1.816 v -8.386 h 25.612 v -1.241 h 1.272 v -1.756 h 1.877 v -0.817 h 3.421 v 2.755 h 2.18 v -2.513 h 5.994 v 0.908 h 1.362 v 1.483 h 13.109 v 28.337 h 2.119 v -16.167 h 1.786 v -0.878 h 1.756 v -1.06 h 2.967 v 1.06 h 2.271 v -0.939 h 1.241 v -9.052 h 1.574 v -0.757 h 22.524 v -1.181 h 1.604 v 1.423 h 1.544 v 3.663 h 10.172 v -1.514 h 1.363 v 1.665 h 6.509 v 7.175 h 12.715 v -4.874 h 6.751 v -25.34 h 3.3 v -10.626 h 2.271 v -6.509 h 4.45 v -6.025 h 3.573 v -5.359 h 2.452 l -1.483,-73.022 c 0,0 30.154,-4.481 74.657,-4.117 v -2.967 h 17.378 l 3.028,5.994 V 469.99 h 2.725 l -1.635,-89.734 3.693,-0.303 v -13.926 c 0,0 1.938,-0.182 1.938,0 0,0.182 0,-6.115 0,-6.115 h 4.662 v -5.994 l 29.729,-19.255 31.062,17.317 0.242,5.813 h 4.783 v 8.901 h 3.209 v 10.536 h 4.662 v 3.693 h 9.93 v -6.115 h 1.332 v -4.481 h -1.756 v -8.174 h 4.117 v -4.783 h 1.816 v -4.481 h 3.694 v -2.664 h 11.08 v 2.906 h 5.51 v 3.27 h 7.993 v 2.361 h -2.422 c 0,0 14.835,4.723 21.253,15.924 v 4.541 h 7.266 l 3.451,-246.617 h 8.174 v -1.332 l -1.453,-0.787 2.725,-0.908 0.061,-1.514 h -2.422 v -2.059 h 2.906 v -1.635 l -2.24,-0.727 v -0.908 h 2.059 l 0.878,-0.878 h 7.357 l 7.75,-28.912 1.09,-4.723 h 2.119 V 76.844 h -2.301 v -1.332 h 1.938 V 63.523 h -1.938 V 60.98 h 0.787 v 1.272 h 1.029 v -3.391 l -1.09,-1.09 v -6.782 h -0.787 v -1.453 l 1.181,-1.181 V 37.541 h -1.423 v -1.029 h 1.574 V 23.615 12.473 L 2366.6624,0 l 1.514,12.534 0.605,10.778 0.545,5.389 h -0.787 v 7.629 h 1.938 v 12.473 l 0.666,0.666 v 0.969 h -0.908 v 10.959 h 1.574 v 2.604 h -1.696 v 11.262 h 2.483 v 1.816 h -2.18 V 88.16 h 2.846 l 10.717,32.212 h 8.114 v -2.543 h 2.604 v 5.147 h -2.361 v 1.998 h 2.604 v 1.756 h -2.664 v 1.695 h 2.604 v 1.998 h -1.453 v 1.332 l 8.901,3.391 14.168,211.014 h 4.42 v -3.996 h 26.581 l 4.057,127.275 h 2.725 l -1.211,-32.212 3.391,0.061 0.484,-1.272 h 7.448 v 0.727 h 1.15 v -12.958 h 3.028 v -14.229 h 4.42 v -17.378 c 0,0 5.268,0.303 5.268,0 0,-0.303 0,-6.903 0,-6.903 l 11.989,-10.657 h 16.409 20.042 l 12.655,9.809 v 6.842 h 5.873 v 17.075 h 6.781 v 2.906 h 7.992 V 614.696 H 0.33939056 c 0,10e-4 -0.789,-161.404 0.039,-160.576 z"
   id="path19" />
</svg>
